HIERARCHY
ROOT SpineFinal_1_JNT
{
  OFFSET -240.393 59.2075 58.0007
  CHANNELS 6 Xposition Yposition Zposition Zrotation Xrotation Yrotation
  JOINT l_legIKClavicle_Root_JNT
  {
    OFFSET -3.98362 -0.106448 9.59625
    CHANNELS 6 Xposition Yposition Zposition Zrotation Xrotation Yrotation
    JOINT l_legBlendRoot_JNT
    {
      OFFSET 16.1374 0 0
      CHANNELS 6 Xposition Yposition Zposition Zrotation Xrotation Yrotation
      JOINT l_legBlendMiddle_JNT
      {
        OFFSET 27.0969 0 0
        CHANNELS 6 Xposition Yposition Zposition Zrotation Xrotation Yrotation
        JOINT l_legBlendEnd_JNT
        {
          OFFSET 24.8414 0 0
          CHANNELS 6 Xposition Yposition Zposition Zrotation Xrotation Yrotation
          JOINT l_legBlendTip_JNT
          {
            OFFSET 6.77858 0 0
            CHANNELS 6 Xposition Yposition Zposition Zrotation Xrotation Yrotation
            End Site
            {
              OFFSET 0 0 0
            }
          }
        }
      }
    }
  }
  JOINT SpineFinal_2_JNT
  {
    OFFSET -19.4897 0.465779 0.161909
    CHANNELS 6 Xposition Yposition Zposition Zrotation Xrotation Yrotation
    JOINT SpineFinal_3_JNT
    {
      OFFSET -19.0177 1.35185 3.1582
      CHANNELS 6 Xposition Yposition Zposition Zrotation Xrotation Yrotation
      JOINT SpineFinal_4_JNT
      {
        OFFSET -18.3853 5.40449 0.628163
        CHANNELS 6 Xposition Yposition Zposition Zrotation Xrotation Yrotation
        JOINT SpineFinal_5_JNT
        {
          OFFSET -17.4965 7.74564 1.43381
          CHANNELS 6 Xposition Yposition Zposition Zrotation Xrotation Yrotation
          JOINT SpineFinal_6_JNT
          {
            OFFSET -19.144 8.35871 0
            CHANNELS 6 Xposition Yposition Zposition Zrotation Xrotation Yrotation
            JOINT SpineFinal_7_JNT
            {
              OFFSET -16.3943 7.24542 0
              CHANNELS 6 Xposition Yposition Zposition Zrotation Xrotation Yrotation
              JOINT SpineFinal_8_JNT
              {
                OFFSET -19.3877 2.40349 0
                CHANNELS 6 Xposition Yposition Zposition Zrotation Xrotation Yrotation
                JOINT head_JNT
                {
                  OFFSET -13.796 -11.6756 0
                  CHANNELS 6 Xposition Yposition Zposition Zrotation Xrotation Yrotation
                  JOINT l_hornRoot_JNT
                  {
                    OFFSET -15.825 14.8229 15.3879
                    CHANNELS 6 Xposition Yposition Zposition Zrotation Xrotation Yrotation
                    JOINT l_hornMid_JNT
                    {
                      OFFSET 6.55118 0 0
                      CHANNELS 6 Xposition Yposition Zposition Zrotation Xrotation Yrotation
                      JOINT l_hornEnd_JNT
                      {
                        OFFSET 6.73503 0 0
                        CHANNELS 6 Xposition Yposition Zposition Zrotation Xrotation Yrotation
                        End Site
                        {
                          OFFSET 0 0 0
                        }
                      }
                    }
                  }
                  JOINT headJend_JNT
                  {
                    OFFSET 1.34858 -27.5886 0
                    CHANNELS 6 Xposition Yposition Zposition Zrotation Xrotation Yrotation
                    End Site
                    {
                      OFFSET 0 0 0
                    }
                  }
                  JOINT r_hornRoot_JNT
                  {
                    OFFSET -15.825 14.8229 -15.3879
                    CHANNELS 6 Xposition Yposition Zposition Zrotation Xrotation Yrotation
                    JOINT r_hornMid_JNT
                    {
                      OFFSET -2.40814 5.46468 -2.69372
                      CHANNELS 6 Xposition Yposition Zposition Zrotation Xrotation Yrotation
                      JOINT r_hornEnd_JNT
                      {
                        OFFSET -2.40922 6.0083 -1.85921
                        CHANNELS 6 Xposition Yposition Zposition Zrotation Xrotation Yrotation
                        End Site
                        {
                          OFFSET 0 0 0
                        }
                      }
                    }
                  }
                  JOINT m_upLip_JNT
                  {
                    OFFSET 4.72477 -9.87974 0
                    CHANNELS 6 Xposition Yposition Zposition Zrotation Xrotation Yrotation
                    JOINT l_lipUpRoot_JNT
                    {
                      OFFSET 2.68891 -0.690234 4.02874
                      CHANNELS 6 Xposition Yposition Zposition Zrotation Xrotation Yrotation
                      JOINT l_lipUpEnd_JNT
                      {
                        OFFSET 0 0 -14.9226
                        CHANNELS 6 Xposition Yposition Zposition Zrotation Xrotation Yrotation
                        End Site
                        {
                          OFFSET 0 0 0
                        }
                      }
                    }
                    JOINT m_upLipRoot_JNT
                    {
                      OFFSET 0 0 3.94939
                      CHANNELS 6 Xposition Yposition Zposition Zrotation Xrotation Yrotation
                      JOINT m_upLipEnd_JNT
                      {
                        OFFSET 0 0 15.0019
                        CHANNELS 6 Xposition Yposition Zposition Zrotation Xrotation Yrotation
                        End Site
                        {
                          OFFSET 0 0 0
                        }
                      }
                    }
                    JOINT r_lipUpRoot_JNT
                    {
                      OFFSET -2.689 -0.690236 4.02875
                      CHANNELS 6 Xposition Yposition Zposition Zrotation Xrotation Yrotation
                      JOINT r_lipUpEnd_JNT
                      {
                        OFFSET 9.35075e-005 -0.000392738 14.9226
                        CHANNELS 6 Xposition Yposition Zposition Zrotation Xrotation Yrotation
                        End Site
                        {
                          OFFSET 0 0 0
                        }
                      }
                    }
                  }
                  JOINT m_DnLip_JNT
                  {
                    OFFSET 6.0207 -9.81639 0
                    CHANNELS 6 Xposition Yposition Zposition Zrotation Xrotation Yrotation
                    JOINT l_lipDn_JNT
                    {
                      OFFSET 2.71301 -0.162748 3.99146
                      CHANNELS 6 Xposition Yposition Zposition Zrotation Xrotation Yrotation
                      JOINT l_lipEnd_JNT
                      {
                        OFFSET 0 0 -14.9599
                        CHANNELS 6 Xposition Yposition Zposition Zrotation Xrotation Yrotation
                        End Site
                        {
                          OFFSET 0 0 0
                        }
                      }
                    }
                    JOINT m_dnLip_JNT
                    {
                      OFFSET 0 -0.0431035 3.99141
                      CHANNELS 6 Xposition Yposition Zposition Zrotation Xrotation Yrotation
                      JOINT m_dnLipEnd_JNT
                      {
                        OFFSET 0 0 14.9599
                        CHANNELS 6 Xposition Yposition Zposition Zrotation Xrotation Yrotation
                        End Site
                        {
                          OFFSET 0 0 0
                        }
                      }
                    }
                    JOINT r_lipDn_JNT
                    {
                      OFFSET -2.71301 -0.162761 3.99141
                      CHANNELS 6 Xposition Yposition Zposition Zrotation Xrotation Yrotation
                      JOINT r_lipDnEnd_JNT
                      {
                        OFFSET 0 0 14.9599
                        CHANNELS 6 Xposition Yposition Zposition Zrotation Xrotation Yrotation
                        End Site
                        {
                          OFFSET 0 0 0
                        }
                      }
                    }
                  }
                }
              }
            }
          }
          JOINT l_FwClavicleRoot_JNT
          {
            OFFSET -2.21979 -5.84701 5.95936
            CHANNELS 6 Xposition Yposition Zposition Zrotation Xrotation Yrotation
            JOINT l_FwLegBlendRoot_JNT
            {
              OFFSET 21.051 0 0
              CHANNELS 6 Xposition Yposition Zposition Zrotation Xrotation Yrotation
              JOINT l_FwLegBlendMiddle_JNT
              {
                OFFSET 33.1145 0 0
                CHANNELS 6 Xposition Yposition Zposition Zrotation Xrotation Yrotation
                JOINT l_FwLegBlendTip_JNT
                {
                  OFFSET 29.9221 0 0
                  CHANNELS 6 Xposition Yposition Zposition Zrotation Xrotation Yrotation
                  JOINT l_FwLegBlendEnd_JNT
                  {
                    OFFSET 9.62649 0 0
                    CHANNELS 6 Xposition Yposition Zposition Zrotation Xrotation Yrotation
                    End Site
                    {
                      OFFSET 0 0 0
                    }
                  }
                }
              }
            }
          }
          JOINT r_FwClavicleRoot_JNT
          {
            OFFSET 0.920315 -2.84654 -2.41328
            CHANNELS 6 Xposition Yposition Zposition Zrotation Xrotation Yrotation
            JOINT r_FwLegBlendRoot_JNT
            {
              OFFSET 1.1653 -12.7157 -16.7361
              CHANNELS 6 Xposition Yposition Zposition Zrotation Xrotation Yrotation
              JOINT r_FwLegBlendMiddle_JNT
              {
                OFFSET 16.2308 -5.97551 28.2387
                CHANNELS 6 Xposition Yposition Zposition Zrotation Xrotation Yrotation
                JOINT r_FwLegBlendTip_JNT
                {
                  OFFSET 26.7017 -9.19239 -9.89204
                  CHANNELS 6 Xposition Yposition Zposition Zrotation Xrotation Yrotation
                  JOINT r_FwLegBlendEnd_JNT
                  {
                    OFFSET 4.44874 -7.74942 3.58114
                    CHANNELS 6 Xposition Yposition Zposition Zrotation Xrotation Yrotation
                    End Site
                    {
                      OFFSET 0 0 0
                    }
                  }
                }
              }
            }
          }
        }
      }
    }
  }
  JOINT r_legIKClavicle_Root_JNT
  {
    OFFSET -3.18509 -0.623524 -9.59625
    CHANNELS 6 Xposition Yposition Zposition Zrotation Xrotation Yrotation
    JOINT r_legBlendRoot_JNT
    {
      OFFSET 13.2848 -5.74129 -7.13912
      CHANNELS 6 Xposition Yposition Zposition Zrotation Xrotation Yrotation
      JOINT r_legBlendMiddle_JNT
      {
        OFFSET 14.815 16.9375 15.0957
        CHANNELS 6 Xposition Yposition Zposition Zrotation Xrotation Yrotation
        JOINT r_legBlendEnd_JNT
        {
          OFFSET 23.6904 -6.58016 -3.54465
          CHANNELS 6 Xposition Yposition Zposition Zrotation Xrotation Yrotation
          JOINT r_legBlendTip_JNT
          {
            OFFSET 1.47758 -6.16068 -2.41079
            CHANNELS 6 Xposition Yposition Zposition Zrotation Xrotation Yrotation
            End Site
            {
              OFFSET 0 0 0
            }
          }
        }
      }
    }
  }
  JOINT tailRoot_JNT
  {
    OFFSET 2.82533 14.5514 0
    CHANNELS 6 Xposition Yposition Zposition Zrotation Xrotation Yrotation
    JOINT tailMid_JNT
    {
      OFFSET 7.87756 0 0
      CHANNELS 6 Xposition Yposition Zposition Zrotation Xrotation Yrotation
      JOINT tailEnd_JNT
      {
        OFFSET 6.52588 0 0
        CHANNELS 6 Xposition Yposition Zposition Zrotation Xrotation Yrotation
        End Site
        {
          OFFSET 0 0 0
        }
      }
    }
  }
  JOINT l_shoulderBkRoot_JNT
  {
    OFFSET -9.30511 7.998 11.2048
    CHANNELS 6 Xposition Yposition Zposition Zrotation Xrotation Yrotation
    JOINT l_shoulderBkMid_JNT
    {
      OFFSET 0 2.96129 0
      CHANNELS 6 Xposition Yposition Zposition Zrotation Xrotation Yrotation
      End Site
      {
        OFFSET 0 0 0
      }
    }
  }
  JOINT r_shoulderBkRoot_JNT
  {
    OFFSET -9.30514 7.99801 -11.2048
    CHANNELS 6 Xposition Yposition Zposition Zrotation Xrotation Yrotation
    JOINT r_shoulderBkMid_JNT
    {
      OFFSET 0 -2.25349 0
      CHANNELS 6 Xposition Yposition Zposition Zrotation Xrotation Yrotation
      End Site
      {
        OFFSET 0 0 0
      }
    }
  }
}
MOTION
Frames:	4
Frame Time:	0.0333333
-239.011 59.791 64.4878 -0.361462 11.3685 85.8219 -5.12667 0.930379 9.59625 -67.513 61.2999 -67.9538 16.1374 -1.04941e-006 1.60952e-006 -23.4568 7.81301 107.236 27.0969 -2.84217e-014 -5.32907e-014 -1.53341e-016 -1.4589e-015 -102 24.8414 2.84217e-014 1.42109e-014 -0.027381 -0.0250643 37.1657 6.77858 0 -2.84217e-014 -0 -7.58303e-022 -0 -19.5386 0.0426171 0.36399 -0.369943 1.46385 12.2717 -19.037 1.50379 3.10806 -1.67231 0.354909 13.9852 -18.3149 5.23032 0.641921 -17.4139 -3.43408 6.39904 -17.2925 7.97448 1.45241 -16.4568 -1.49424 16.6906 -19.144 8.35871 0 -16.6153 0 -3.17089 -16.3943 7.24542 5.68434e-014 -23.2533 -10.0322 4.45316 -19.3877 2.40349 -8.52651e-014 2.26714 6.36111e-015 2.68047 -13.796 -11.6756 2.84217e-014 -13.4715 -6.36111e-015 7.95139e-016 -15.825 14.8229 15.3879 101.773 2.59666 -24.2782 6.55118 1.7053e-013 5.68434e-014 1.66294 -7.5369 2.27757 6.73503 5.68434e-014 -5.68434e-014 -0 -3.18055e-015 -0 1.34858 -27.5886 -2.84217e-014 92.7985 1.03368e-014 -2.54444e-014 -15.825 14.8229 -15.3879 -10.8666 1.9327 -4.56394 -2.40814 5.46468 -2.69372 1.59378 -7.57032 2.74284 -2.40922 6.0083 -1.85921 5.96354e-016 -3.18055e-015 5.96354e-016 4.72477 -9.87974 1.42109e-013 92.7985 3.50417e-015 -90 2.68891 -0.690234 4.02874 180 7.01671e-015 180 -2.84217e-014 -1.42109e-014 -14.9226 2.38542e-015 -3.18055e-015 3.18055e-015 2.84217e-014 -2.84217e-014 3.94939 -3.18055e-015 0 6.36111e-015 -2.84217e-014 0 15.0019 -3.18055e-015 -2.38542e-015 -3.18055e-015 -2.689 -0.690236 4.02875 -3.18055e-015 0 6.36111e-015 9.35075e-005 -0.000392738 14.9226 -3.18055e-015 -2.38542e-015 -3.18055e-015 6.0207 -9.81639 1.13687e-013 92.7985 3.50417e-015 -90 2.71301 -0.162748 3.99146 180 7.01671e-015 180 -2.84217e-014 -1.42109e-014 -14.9599 2.38542e-015 -3.18055e-015 3.18055e-015 0 -0.0431035 3.99141 -3.18055e-015 0 6.36111e-015 2.84217e-014 1.42109e-014 14.9599 -3.18055e-015 -2.38542e-015 -3.18055e-015 -2.71301 -0.162761 3.99141 -3.18055e-015 0 6.36111e-015 5.68434e-014 0 14.9599 -3.18055e-015 -2.38542e-015 -3.18055e-015 -1.92135 -5.73034 6.03202 55.7385 18.4963 -124.81 21.051 -1.0249e-007 -1.62405e-006 21.9986 -44.605 88.2564 33.1145 8.3753e-007 -2.8019e-007 104.906 7.01671e-015 -180 29.9221 4.9738e-014 -2.84217e-014 47.3463 -3.05978 26.5903 9.62649 2.13163e-014 5.68434e-014 29.859 -1.7467e-015 90 1.90486 -2.86241 -2.53394 -45.3639 0.758151 -16.6806 1.1653 -12.7157 -16.7361 34.1973 -58.5531 110.78 16.2308 -5.97551 28.2387 142.353 7.66198 156.997 26.7017 -9.19239 -9.89204 32.7858 34.7766 22.604 4.44874 -7.74942 3.58114 29.859 -1.7467e-015 90 -2.95165 -0.749738 -9.59625 -83.2722 -9.24999 4.74057 13.2848 -5.74129 -7.13912 -8.87325 5.44295 42.5153 14.815 16.9375 15.0957 -15.6647 15.3829 -51.9189 23.6904 -6.58016 -3.54465 19.6181 3.10868 -51.205 1.47758 -6.16068 -2.41079 -7.95139e-016 1.59028e-015 7.60351e-015 2.82533 14.5514 -2.84217e-014 4.99157 3.97569e-016 10.5924 7.87756 -2.84217e-014 2.84217e-014 19.1217 3.97569e-016 0.115369 6.52588 1.42109e-014 -2.84217e-014 6.37576e-015 0 -3.88505 -9.30511 7.998 11.2048 -6.8505 -4.18474e-016 -90 0 4.11068 0 3.97569e-016 2.38542e-015 -0 -9.30514 7.99801 -11.2048 173.149 4.18474e-016 -90 0 -2.05616 0 -3.97569e-016 -1.59028e-015 7.95139e-016 
-238.514 60.1762 67.2122 -0.634871 11.3983 86.202 -5.67177 1.60818 9.59625 -73.9838 61.2999 -67.9538 16.1374 -1.11328e-006 1.51277e-006 -22.3263 8.81014 106.708 27.0969 5.68434e-014 -3.19744e-014 1.38421e-014 -1.62726e-015 -103.41 24.8414 -5.68434e-014 0 -0.580269 -0.663379 42.5322 6.77858 -5.68434e-014 -1.42109e-014 -1.2424e-017 -9.93923e-017 -7.95139e-016 -19.5599 -0.236944 0.470318 0.399744 1.65385 12.6823 -19.0425 1.59987 3.08839 -1.67373 0.453705 13.8814 -18.2751 5.11053 0.634445 -17.4621 -3.2907 6.35581 -17.1507 8.13388 1.44873 -17.3119 -1.56183 16.691 -19.144 8.35871 -5.68434e-014 -16.6153 0 -3.11495 -16.3943 7.24542 5.68434e-014 -23.2533 -10.0322 4.45316 -19.3877 2.40349 -8.52651e-014 2.30837 1.59028e-014 2.57604 -13.796 -11.6756 8.52651e-014 -13.604 3.18055e-015 -1.59028e-015 -15.825 14.8229 15.3879 101.662 2.6469 -24.2731 6.55118 1.27898e-013 0 2.64574 -7.49705 2.40614 6.73503 1.42109e-014 -8.52651e-014 -1.76556e-031 3.18055e-015 3.18055e-015 1.34858 -27.5886 -2.84217e-014 92.7985 1.59028e-014 -6.36111e-015 -15.825 14.8229 -15.3879 -10.9765 1.95678 -4.60845 -2.40814 5.46468 -2.69372 2.53566 -7.54431 3.14686 -2.40922 6.0083 -1.85921 0 0 -0 4.72477 -9.87974 -2.84217e-014 92.7985 3.50417e-015 -90 2.68891 -0.690234 4.02874 180 7.01671e-015 -180 0 -1.42109e-014 -14.9226 -2.64834e-031 2.38542e-015 6.36111e-015 0 2.84217e-014 3.94939 -1.59028e-015 -2.38542e-015 -1.27222e-014 0 -1.42109e-014 15.0019 -7.95139e-016 0 -0 -2.689 -0.690236 4.02875 -1.59028e-015 -2.38542e-015 -1.27222e-014 9.35075e-005 -0.000392738 14.9226 -7.95139e-016 0 -0 6.0207 -9.81639 -2.84217e-014 92.7985 3.50417e-015 -90 2.71301 -0.162748 3.99146 180 7.01671e-015 -180 0 0 -14.9599 -2.64834e-031 2.38542e-015 6.36111e-015 5.68434e-014 -0.0431035 3.99141 -1.59028e-015 -2.38542e-015 -1.27222e-014 -2.84217e-014 -1.42109e-014 14.9599 -7.95139e-016 0 -0 -2.71301 -0.162761 3.99141 -1.59028e-015 -2.38542e-015 -1.27222e-014 0 1.42109e-014 14.9599 -7.95139e-016 0 -0 -1.72169 -5.64573 6.08612 56.5695 18.3398 -124.643 21.051 -9.33038e-008 -1.74623e-006 20.771 -42.157 87.772 33.1145 8.3753e-007 -2.8019e-007 105.627 7.01671e-015 180 29.9221 4.9738e-014 5.68434e-014 47.0418 -3.56825 27.2807 9.62649 1.42109e-014 0 29.859 -1.7467e-015 90 1.9965 -2.8612 -2.54583 -44.9831 0.736702 -16.6135 1.1653 -12.7157 -16.7361 36.2022 -59.1258 108.607 16.2308 -5.97551 28.2387 143.099 9.20613 151.915 26.7017 -9.19239 -9.89204 31.4103 35.0032 24.1375 4.44874 -7.74942 3.58114 29.859 -1.7467e-015 90 -2.78346 -0.83437 -9.59625 -81.8722 -9.24999 4.74057 13.2848 -5.74129 -7.13912 -8.03163 5.18717 41.9981 14.815 16.9375 15.0957 -12.7822 12.7043 -52.6187 23.6904 -6.58016 -3.54465 13.533 2.12048 -50.5496 1.47758 -6.16068 -2.41079 -7.95139e-016 -7.95139e-016 7.45443e-016 2.82533 14.5514 -5.68434e-014 4.99157 0 12.6257 7.87756 -4.26326e-014 2.84217e-014 19.1217 7.95139e-016 0.772819 6.52588 1.42109e-014 0 -3.21107e-015 -7.95139e-016 -2.05122 -9.30511 7.998 11.2048 -6.8505 -4.18474e-016 -90 -2.84217e-014 4.75776 0 -0 -1.59028e-015 -0 -9.30514 7.99801 -11.2048 173.149 4.18474e-016 -90 2.84217e-014 -1.91616 1.42109e-014 -4.96962e-017 -7.95139e-016 1.59028e-015 
-238.047 60.4461 69.9363 -0.793029 11.4211 86.1125 -6.0599 2.20777 9.59625 -79.2964 61.2999 -67.9538 16.1374 -1.14629e-006 1.42342e-006 -20.9035 9.77383 103.252 27.0969 5.68434e-014 -4.26326e-014 1.38299e-016 1.38625e-015 -101.395 24.8414 -5.68434e-014 -1.42109e-014 -1.14793 -1.60945 40.7694 6.77858 -2.84217e-014 0 -1.2424e-017 3.97569e-016 -0 -19.5471 -0.432944 0.722915 0.905482 1.87183 13.7243 -19.0505 1.66704 3.0533 -1.67995 0.537633 13.6873 -18.2513 5.02769 0.614521 -17.4958 -3.15918 6.22664 -17.0526 8.24522 1.43304 -17.9143 -1.58938 16.6268 -19.144 8.35871 0 -16.6153 -3.18055e-015 -2.95672 -16.3943 7.24542 2.84217e-014 -23.2533 -10.0322 4.45316 -19.3877 2.40349 -1.13687e-013 2.4196 9.54166e-015 2.29278 -13.796 -11.6756 8.52651e-014 -13.6441 -9.54166e-015 -7.95139e-016 -15.825 14.8229 15.3879 101.35 2.78717 -24.2583 6.55118 1.98952e-013 0 3.2858 -7.46992 2.4895 6.73503 2.84217e-014 -8.52651e-014 4.77083e-015 -3.18055e-015 -0 1.34858 -27.5886 0 92.7985 1.35174e-014 -1.90833e-014 -15.825 14.8229 -15.3879 -11.2834 2.02447 -4.73247 -2.40814 5.46468 -2.69372 3.14903 -7.52384 3.40975 -2.40922 6.0083 -1.85921 -5.96354e-016 6.36111e-015 -3.97569e-016 4.72477 -9.87974 -2.84217e-014 92.7985 3.50417e-015 -90 2.68891 -0.690234 4.02874 180 7.01671e-015 -180 2.84217e-014 0 -14.9226 7.95139e-016 1.59028e-015 -0 5.68434e-014 1.42109e-014 3.94939 6.62086e-031 3.97569e-015 -9.54166e-015 0 0 15.0019 -7.95139e-016 -1.59028e-015 -9.54166e-015 -2.689 -0.690236 4.02875 6.62086e-031 3.97569e-015 -9.54166e-015 9.35075e-005 -0.000392738 14.9226 -7.95139e-016 -1.59028e-015 -9.54166e-015 6.0207 -9.81639 -2.84217e-014 92.7985 3.50417e-015 -90 2.71301 -0.162748 3.99146 180 7.01671e-015 -180 2.84217e-014 -1.42109e-014 -14.9599 7.95139e-016 1.59028e-015 -0 0 -0.0431035 3.99141 6.62086e-031 3.97569e-015 -9.54166e-015 -2.84217e-014 0 14.9599 -7.95139e-016 -1.59028e-015 -9.54166e-015 -2.71301 -0.162761 3.99141 6.62086e-031 3.97569e-015 -9.54166e-015 2.84217e-014 -1.42109e-014 14.9599 -7.95139e-016 -1.59028e-015 -9.54166e-015 -1.26007 -5.43512 6.21217 58.4989 17.9948 -124.231 21.051 -1.09412e-007 -1.90424e-006 23.4109 -40.3026 91.0184 33.1145 8.3753e-007 -2.8019e-007 103.093 7.01671e-015 -180 29.9221 7.10543e-015 -1.13687e-013 37.5465 -6.44207 24.8541 9.62649 2.13163e-014 0 29.859 -1.7467e-015 90 2.23533 -2.85533 -2.5777 -43.989 0.674409 -16.4339 1.1653 -12.7157 -16.7361 38.209 -58.7311 106.361 16.2308 -5.97551 28.2387 143.994 10.6926 146.738 26.7017 -9.19239 -9.89204 31.6133 35.2023 24.2884 4.44874 -7.74942 3.58114 29.859 -1.7467e-015 90 -2.35623 -1.027 -9.59625 -78.387 -9.24999 4.74057 13.2848 -5.74129 -7.13912 -10.1007 4.63806 42.0748 14.815 16.9375 15.0957 -10.7284 10.7404 -53.0361 23.6904 -6.58016 -3.54465 9.30976 1.36879 -50.0533 1.47758 -6.16068 -2.41079 -2.02764e-031 1.59028e-015 7.30534e-015 2.82533 14.5514 0 4.99157 3.97569e-016 13.8895 7.87756 -2.84217e-014 -1.42109e-013 19.1217 -2.38542e-015 1.44844 6.52588 2.84217e-014 5.68434e-014 -3.01303e-018 -7.95139e-016 -0.217111 -9.30511 7.998 11.2048 -6.8505 -4.18474e-016 -90 0 5.28902 0 3.47873e-016 2.38542e-015 7.95139e-016 -9.30514 7.99801 -11.2048 173.149 4.18474e-016 -90 2.84217e-014 -1.56765 0 -9.93923e-017 7.95139e-016 -7.95139e-016 
-237.534 60.615 72.6541 -0.877578 11.4378 85.8171 -6.30842 2.66912 9.59625 -83.1936 61.2999 -67.9538 16.1374 -1.15632e-006 1.35318e-006 -19.5258 10.6009 97.4963 27.0969 0 0 -3.37802e-017 -6.87685e-016 -95.6244 24.8414 -5.68434e-014 -1.42109e-014 -1.58165 -2.56093 31.0597 6.77858 -2.84217e-014 -1.42109e-014 2.20695e-032 3.97569e-016 -3.18055e-015 -19.509 -0.555963 1.03492 1.1862 2.09736 15.0655 -19.0548 1.7091 3.02378 -1.68979 0.603228 13.4948 -18.2372 4.97655 0.580024 -17.5231 -3.03607 6.00222 -16.9934 8.31468 1.40542 -18.294 -1.57715 16.4986 -19.144 8.35871 0 -16.6153 3.18055e-015 -2.71058 -16.3943 7.24542 0 -23.2533 -10.0322 4.45316 -19.3877 2.40349 -8.52651e-014 2.5822 1.59028e-014 1.87571 -13.796 -11.6756 2.84217e-014 -13.6297 -3.18055e-015 -1.59028e-015 -15.825 14.8229 15.3879 100.873 3.00171 -24.2342 6.55118 1.84741e-013 5.68434e-014 3.53774 -7.45899 2.52223 6.73503 2.84217e-014 -5.68434e-014 3.18055e-015 0 3.18055e-015 1.34858 -27.5886 0 92.7985 1.11319e-014 -9.54166e-015 -15.825 14.8229 -15.3879 -11.7526 2.12929 -4.92149 -2.40814 5.46468 -2.69372 3.39044 -7.51501 3.51318 -2.40922 6.0083 -1.85921 -3.97569e-016 0 -3.97569e-016 4.72477 -9.87974 5.68434e-014 92.7985 3.50417e-015 -90 2.68891 -0.690234 4.02874 180 7.01671e-015 -180 0 1.42109e-014 -14.9226 -2.38542e-015 7.95139e-016 6.36111e-015 2.84217e-014 4.26326e-014 3.94939 -7.95139e-016 0 -3.18055e-015 0 0 15.0019 1.59028e-015 0 -6.36111e-015 -2.689 -0.690236 4.02875 -7.95139e-016 0 -3.18055e-015 9.35075e-005 -0.000392738 14.9226 1.59028e-015 0 -6.36111e-015 6.0207 -9.81639 0 92.7985 3.50417e-015 -90 2.71301 -0.162748 3.99146 180 7.01671e-015 -180 0 0 -14.9599 -2.38542e-015 7.95139e-016 6.36111e-015 0 -0.0431035 3.99141 -7.95139e-016 0 -3.18055e-015 0 0 14.9599 1.59028e-015 0 -6.36111e-015 -2.71301 -0.162761 3.99141 -7.95139e-016 0 -3.18055e-015 0 0 14.9599 1.59028e-015 0 -6.36111e-015 -0.739595 -5.17177 6.35556 60.6829 17.6441 -123.711 21.051 -1.53814e-007 -2.04228e-006 27.7796 -39.1534 96.1656 33.1145 8.3753e-007 -2.8019e-007 100.139 7.01671e-015 180 29.9221 2.84217e-014 0 23.7797 -9.17967 20.5273 9.62649 2.84217e-014 0 29.859 -1.7467e-015 90 2.56709 -2.84062 -2.6242 -42.6041 0.575516 -16.1729 1.1653 -12.7157 -16.7361 39.9845 -57.8256 104.083 16.2308 -5.97551 28.2387 144.902 11.9376 142.112 26.7017 -9.19239 -9.89204 32.9225 35.0991 23.2682 4.44874 -7.74942 3.58114 29.859 -1.7467e-015 90 -1.7889 -1.23661 -9.59625 -73.8888 -9.24999 4.74057 13.2848 -5.74129 -7.13912 -13.6526 3.92493 42.6303 14.815 16.9375 15.0957 -8.97636 9.0335 -53.337 23.6904 -6.58016 -3.54465 5.94074 0.771275 -49.7631 1.47758 -6.16068 -2.41079 -7.95139e-016 0 -5.46658e-016 2.82533 14.5514 0 4.99157 0 14.5625 7.87756 -1.42109e-014 -2.84217e-014 19.1217 -7.95139e-016 2.0956 6.52588 0 1.13687e-013 -0 0 1.58321 -9.30511 7.998 11.2048 -6.8505 -4.18474e-016 -90 0 5.67874 0 -4.96962e-017 0 -0 -9.30514 7.99801 -11.2048 173.149 4.18474e-016 -90 -5.68434e-014 -1.11782 -1.42109e-014 0 0 -0 
